<svg xmlns="http://www.w3.org/2000/svg" width="120" height="40" viewBox="0 0 120 40">
  <!-- Gold horse icon -->
  <path d="M16.2,10.5c2.4,0.8,4.1,2,5.5,3.8c0.4-1.2,1.2-2.2,2.4-2.8c1.2-0.6,2.5-0.6,3.7,0c1.3,0.6,2,1.6,2.4,2.8c1.3-1.8,3-3,5.5-3.8c-1.2,2.4-1.7,4.9-1.6,7.6c0.1,2.7,1,5.1,2.6,7.2c-2.7-0.5-5-1.5-6.8-3.4c-0.2,2-1,3.5-2.3,4.9c-1.3,1.4-3,2-4.8,2c-1.9,0-3.5-0.7-4.8-2c-1.3-1.4-2.1-3-2.3-4.9c-1.8,1.9-4.1,2.9-6.8,3.4c1.7-2.1,2.5-4.5,2.6-7.2C14.5,15.4,14,12.9,16.2,10.5z" fill="#EAAA00"/>
  
  <!-- UNIVERSITY OF SURREY text -->
  <g fill="#003F72">
    <!-- UNIVERSITY OF -->
    <path d="M50,15h-1.5v-5h1.5v5z"/>
    <path d="M54,10h-1.5l-1.2,3.8L50,10h-1.5v5h1v-3.8l1.2,3.8h0.6l1.2-3.8v3.8h1v-5z"/>
    <path d="M55,10h1v5h-1z"/>
    <path d="M60,10h-1.5l-1.7,5h1.1l0.3-1h1.9l0.3,1h1.1l-1.7-5zM58.5,13l0.7-2.2l0.7,2.2h-1.4z"/>
    <path d="M65,10h-3v5h3v-1h-2v-1h1.8v-1H63v-1h2v-1z"/>
    <path d="M67,10h-1v5h1z"/>
    <path d="M69,13.5l-1.7-3.5h-1.1v5h1v-3.5l1.7,3.5h1.1v-5h-1v3.5z"/>
    <path d="M75,10h-1l-1.2,2.2L71.5,10h-1v5h1v-3.3L72.8,14h0.1l1.2-2.3v3.3h1v-5z"/>
    
    <!-- SURREY -->
    <path d="M49,25h-4v1h1.5v4h1v-4H49v-1z"/>
    <path d="M52,25c-1.4,0-2.5,1.1-2.5,2.5s1.1,2.5,2.5,2.5s2.5-1.1,2.5-2.5S53.4,25,52,25zM52,29c-0.8,0-1.5-0.7-1.5-1.5s0.7-1.5,1.5-1.5s1.5,0.7,1.5,1.5S52.8,29,52,29z"/>
    <path d="M58,25h-1l-2,5h1.1l0.4-1h2l0.4,1h1.1l-2-5zM56.9,28l0.7-2l0.7,2h-1.4z"/>
    <path d="M63,25h-1v5h3v-1h-2v-4z"/>
    <path d="M67,25h-1v5h3v-1h-2v-4z"/>
    <path d="M72,25h-3v5h3v-1h-2v-1h1.8v-1H70v-1h2v-1z"/>
    <path d="M77,25h-1l-2,3v-3h-1v5h1v-1.5l0.5-0.7l1.5,2.2h1.2l-2-3l1.8-2z"/>
  </g>
</svg> 